<svg xmlns="http://www.w3.org/2000/svg" xmlns:xlink="http://www.w3.org/1999/xlink" width="500" zoomAndPan="magnify" viewBox="0 0 375 374.999991" height="500" preserveAspectRatio="xMidYMid meet" version="1.0"><defs><clipPath id="ce93389b7d"><path d="M 99 122.292969 L 196.710938 122.292969 L 196.710938 220 L 99 220 Z M 99 122.292969 " clip-rule="nonzero"/></clipPath><clipPath id="41e667a6b9"><path d="M 88.710938 132 L 187 132 L 187 230.292969 L 88.710938 230.292969 Z M 88.710938 132 " clip-rule="nonzero"/></clipPath><clipPath id="622155b79e"><path d="M 187.5 122.292969 L 252 122.292969 L 252 240.792969 L 187.5 240.792969 Z M 187.5 122.292969 " clip-rule="nonzero"/></clipPath></defs><g clip-path="url(#ce93389b7d)"><path fill="#5e17eb" d="M 196.699219 219.785156 L 99.207031 122.292969 L 127.121094 122.292969 L 176.960938 172.136719 L 176.960938 122.292969 L 196.699219 122.292969 Z M 196.699219 219.785156 " fill-opacity="1" fill-rule="evenodd"/></g><g clip-path="url(#41e667a6b9)"><path fill="#5e17eb" d="M 88.726562 132.808594 L 186.21875 230.296875 L 158.304688 230.296875 L 108.464844 180.457031 L 108.464844 230.296875 L 88.726562 230.296875 Z M 88.726562 132.808594 " fill-opacity="1" fill-rule="evenodd"/></g><g clip-path="url(#622155b79e)"><path fill="#5e17eb" d="M 214.632812 240.769531 L 187.5 209.804688 L 187.5 122.320312 L 227.730469 122.320312 C 241.042969 122.320312 251.855469 133.144531 251.855469 146.476562 C 251.855469 159.804688 241.042969 170.632812 227.730469 170.632812 L 208.886719 170.632812 L 208.886719 164.136719 L 227.730469 164.136719 C 237.460938 164.136719 245.367188 156.21875 245.367188 146.476562 C 245.367188 136.730469 237.460938 128.816406 227.730469 128.816406 L 194.011719 128.816406 L 194.011719 207.351562 L 208.144531 223.472656 L 208.144531 172.941406 L 214.632812 172.941406 Z M 214.632812 240.769531 " fill-opacity="1" fill-rule="nonzero"/></g><path fill="#5e17eb" d="M 245.847656 191.542969 L 226.023438 191.542969 L 226.023438 185.046875 L 245.847656 185.046875 C 255.582031 185.046875 263.488281 177.128906 263.488281 167.386719 C 263.488281 157.640625 255.582031 149.722656 245.847656 149.722656 L 208.886719 149.722656 L 208.886719 143.226562 L 245.871094 143.226562 C 259.1875 143.226562 270 154.054688 270 167.386719 C 270 180.714844 259.160156 191.542969 245.847656 191.542969 Z M 245.847656 191.542969 " fill-opacity="1" fill-rule="nonzero"/></svg>